<?xml version="1.0" encoding="UTF-8"?>
<!-- Generator: Adobe Illustrator 19.0.1, SVG Export Plug-In . SVG Version: 6.00 Build 0)  -->
<svg id="Icon" width="131" height="131" enable-background="new 0 0 250 250" version="1.1" viewBox="0 0 131 131" xml:space="preserve" xmlns="http://www.w3.org/2000/svg">

<path d="m108.3 100.2c-7.7 9.4-18.4 16.2-30.6 19-1.7-4.8-2.4-10-1.7-15.1l0.2 0.3c2.4 3.3 6.1 5.5 10.2 5.9-6.9-20.9 1.2-38.1 1.2-38.1s1.8-6.2 7.1-8.4c4.9-2.1 9-4.4 8.6-8.4-0.1-0.7-0.7-1.2-1.4-1-0.6 0.1-1.1 0.2-1.6 0.3l-1.3-3.2c-0.1-0.4-0.7-0.3-0.8 0l-1 3.7c-7.3 1.3-13.1 2.3-14.6 0.6-1.3-1.5 5.3-9.7 8.1-18.7l3.2 1.5c0.4 0.2 0.8-0.2 0.6-0.6l-2.4-5.4c0.4-2.8-0.5-4.3-1.2-7.2-2.1-7.4-9.7 1.2-9.7 1.2s-15.2 10.6-16.3 11.3c-8-0.5-8.8-0.6-24.8 16.3-9.3 2.9-12.2 0.7-14.8 1.8-0.7 0.3 3.3 9.6 11.8 9.9 0 0-5.7 8-21.2 10.9 3.1 4.1 7.7 4.5 7.7 4.5s-4.7 1.6-10.5 2.2c-2-5.7-3.1-11.8-3.1-18.1 0-30.5 24.8-55.4 55.4-55.4s55.4 24.8 55.4 55.4c0 0.9 0 1.7-0.1 2.6-0.1 1.5 0.8 2.9 2.3 3.5 0.1 0 0.1 0 0.2 0.1 2.2 0.8 4.6-0.7 4.7-3.1 0-1 0.1-2 0.1-3 0-34.5-28-62.5-62.5-62.5-34.4 0-62.5 28.1-62.5 62.5 0 34.5 28 62.5 62.5 62.5 19.5 0 37-9 48.5-23.1 1.4-1.7 0.9-4.2-1.1-5.3l-0.1-0.1c-1.6-1-3.4-0.6-4.5 0.7z" fill="#fff"/>
</svg>
